# 3ds Max Wavefront OBJ Exporter v0.97b - (c)2007 guruware
# File Created: 18.04.2015 21:40:13

#
# object Box001
#

v  -5.00 -5.00 5.00
v  -5.00 -5.00 -5.00
v  5.00 -5.00 -5.00
v  5.00 -5.00 5.00
v  -5.00 5.00 5.00
v  5.00 5.00 5.00
v  5.00 5.00 -5.00
v  -5.00 5.00 -5.00
# 8 vertices

vn 0.00 -1.00 -0.00
vn 0.00 1.00 -0.00
vn 0.00 0.00 1.00
vn 1.00 0.00 -0.00
vn 0.00 0.00 -1.00
vn -1.00 0.00 -0.00
# 6 vertex normals

vt 0.00 0.00 0.00
vt 10.00 0.00 0.00
vt 0.00 10.00 0.00
vt 10.00 10.00 0.00
vt 0.00 0.00 0.00
vt 10.00 0.00 0.00
vt 0.00 10.00 0.00
vt 10.00 10.00 0.00
vt 0.00 0.00 0.00
vt 10.00 0.00 0.00
vt 0.00 10.00 0.00
vt 10.00 10.00 0.00
# 12 texture coords

g Box001
f 1/10/1 2/12/1 3/11/1 
f 3/11/1 4/9/1 1/10/1 
f 5/9/2 6/10/2 7/12/2 
f 7/12/2 8/11/2 5/9/2 
f 1/5/3 4/6/3 6/8/3 
f 6/8/3 5/7/3 1/5/3 
f 4/1/4 3/2/4 7/4/4 
f 7/4/4 6/3/4 4/1/4 
f 3/5/5 2/6/5 8/8/5 
f 8/8/5 7/7/5 3/5/5 
f 2/1/6 1/2/6 5/4/6 
f 5/4/6 8/3/6 2/1/6 
# 12 faces

